<?xml version="1.0" encoding="UTF-8" standalone="no"?>
<svg
   version="1.1"
   viewbox="0 0 3178.5828 2245.0393"
   id="doc"
   sodipodi:docname="za_nc.svg"
   inkscape:version="1.1.2 (0a00cf5339, 2022-02-04)"
   xmlns:inkscape="http://www.inkscape.org/namespaces/inkscape"
   xmlns:sodipodi="http://sodipodi.sourceforge.net/DTD/sodipodi-0.dtd"
   xmlns="http://www.w3.org/2000/svg"
   xmlns:svg="http://www.w3.org/2000/svg"
   xmlns:rdf="http://www.w3.org/1999/02/22-rdf-syntax-ns#"
   xmlns:cc="http://creativecommons.org/ns#"
   xmlns:dc="http://purl.org/dc/elements/1.1/">
  <sodipodi:namedview
     id="namedview3724"
     pagecolor="#282828"
     bordercolor="#666666"
     borderopacity="1.0"
     inkscape:pageshadow="2"
     inkscape:pageopacity="0"
     inkscape:pagecheckerboard="0"
     showgrid="false"
     inkscape:zoom="0.30378088"
     inkscape:cx="1877.9984"
     inkscape:cy="1272.2986"
     inkscape:window-width="1920"
     inkscape:window-height="1019"
     inkscape:window-x="0"
     inkscape:window-y="31"
     inkscape:window-maximized="1"
     inkscape:current-layer="map" />
  <metadata
     id="metadata7429">
    <rdf:RDF>
      <cc:Work
         rdf:about="">
        <dc:format>image/svg+xml</dc:format>
        <dc:type
           rdf:resource="http://purl.org/dc/dcmitype/StillImage" />
      </cc:Work>
    </rdf:RDF>
  </metadata>
  <defs
     id="defs">
    <clipPath
       id="mapclip">
      <rect
         width="3178.5828"
         height="2245"
         x="0"
         y="0"
         id="cliprect" />
    </clipPath>
    <clipPath
       id="mapclip-5">
      <rect
         width="472"
         height="480"
         x="0"
         y="0"
         id="cliprect-9" />
    </clipPath>
    <clipPath
       id="mapclip-0">
      <rect
         width="648"
         height="659"
         x="0"
         y="0"
         id="cliprect-6" />
    </clipPath>
    <clipPath
       id="mapclip-6">
      <rect
         width="750"
         height="763"
         x="0"
         y="0"
         id="cliprect-3" />
    </clipPath>
  </defs>
  <g
     id="map"
     clip-path="url(#mapclip)">
    <g
       id="prov_border"
       style="fill:none;stroke:#aaaaaa;stroke-width:5;stroke-linecap:round;stroke-linejoin:round;stroke-opacity:1">
      <path
         style="stroke:none;stroke-opacity:1;fill:#ffffff;fill-opacity:0.25"
         d="m 1258.53,717.18 0.51,6.56 -7.42,6.99 -8.37,-4.38 -7.81,4.14 -8.05,16.38 -18,5.11 -8.05,8.43 -3.99,19.1 -12.77,12.71 -3.55,8.73 -14.8,6.42 -19.64,-0.99 -7.62,5.16 3.52,13.51 -1.64,5.54 -12.73,10.33 -13.69,-2.21 -11.88,3.02 -18.24,-6.17 -16.42,5.15 -11.16,-0.64 -13.03,5.48 -19.38,-4.35 -4.52,-5.39 -14.04,-1.93 -29.42,19.64 -0.92,-11.34 -6.07,-2.56 -4.78,-24.57 1.62,-15.83 -4.47,-10.52 1.47,-13.04 4.31,-1.67 16.18,-25.6 4.66,-2.8 4.37,-16.19 5.88,-7.61 -6.58,-4.37 -1.43,-16.78 3.51,-7.6 -5.55,-5.94 0.9,-9.42 -4.18,-11.11 -9.1,-5.54 -7.63,-12.21 1.78,-16.86 -10.44,-10.68 -0.39,-16.64 -10.62,-5.79 -4.12,-17.04 -7.24,-3.73 0.12,-6.86 -8.22,-4.65 -10.58,-27.4 -15.46,-10.33 -3.39,-6.8 -23.31,-7.1 -4.26,-7.95 -14.49,-10.7 12.98,312.5 8.31,195.08 4.43,110.45 -22.32,6.4 -4.72,8.37 -12.46,-2.91 -8.47,7.39 -7.39,-2.78 -10.93,5.91 -5.11,9.29 -2.25,14.57 -12.05,9.74 -20.02,1.92 -3.92,10.98 7.49,17.04 -5.91,-0.74 -6.81,7.86 -11.39,4.35 -16.96,-6.81 -10.95,-10.8 -30.81,-2.75 -15.17,2.51 -16.31,8.95 -12.99,2.62 -23.82,-2.31 -9.95,6.64 -17.36,-6.69 -4.85,1.01 -8.26,-10.35 -11.85,-7.15 -32.54,-1.07 -11.61,3.75 -3.65,-11.55 -15.58,0.65 -10.77,5.62 v -25.77 l -5.99,0.6 -9.33,-15.72 8.89,-8.62 2.06,-8.83 -13.01,-24.13 -17.92,4.43 -5.01,-6.33 -0.34,-17.61 -6.8,-1.1 -9.95,-9.97 -26.9,8.9 -0.42,16.63 -9.04,1.06 0.89,15.45 -10.51,1.65 8.97,14.35 -5.34,6.35 1.61,7.33 -5.72,9.58 -8.14,-3.53 -12.34,11.93 -16.26,6.24 -3.39,11.53 19.03,16.84 6.5,22.89 13.1,7.6 9.91,18.85 10.54,7.48 11.38,33.4 9.25,10.74 10.49,25.64 6.92,16.75 8.09,32.73 8.04,20.08 5.58,6.68 4.71,14.21 3.83,13.38 9.83,19.33 3.62,14.32 15.1,25.03 11.44,15.7 -1.09,4.16 13.51,17.42 14.32,30.94 11.93,13.47 12.76,24.94 11.34,3.48 -4.18,-13.97 15.83,-14.68 -7.54,-14.36 16.32,-1.84 0.65,-21.62 11.96,-1.26 12.18,9.58 6.07,-6.8 7.41,0.92 14.02,-27.64 -0.61,-11.4 5.59,-11.27 -5.46,-11.17 9.72,8.22 12.23,15.45 -6.38,-13.97 1.99,-13.23 9.76,-2.92 13.5,20.69 15.15,1.09 6.08,16.58 10.36,7.84 13.08,3.96 2.34,20.48 -12.15,4.16 16.3,9.12 -10.25,6.12 -0.66,10.66 6.99,11.69 0.6,21.02 10.48,11.04 -4.33,8.6 9.65,11.32 -2.74,12.7 9.7,4.2 -0.52,23.69 2.86,21.44 -7.69,7 -0.24,7.29 13.44,4.49 11.68,-0.96 1.94,7.22 10.65,-14.88 -2.74,17.49 8.54,2.82 6.14,9.52 4.5,-4.89 13.41,9.7 -1.02,11.9 4.01,5.49 -0.86,12.29 -11.49,6.91 3.61,12.61 10.29,17.97 -0.66,15.34 6.73,17.9 10.6,-7.87 1.21,-26.89 15.27,-5.45 11.91,-14.31 17.22,2.06 21.91,-22.37 7.42,-11.07 2.36,6.83 10.64,-0.98 2.48,14.54 -5.51,-1.08 -7.18,8.37 -4.03,12.01 -7.63,-3.68 6.18,28.93 4.28,12.24 7.48,6.8 -0.13,11.3 4.69,5.23 11.64,2.96 12.04,15.89 8.56,6.12 8.64,-0.06 8.43,-10.55 4.48,10.3 20.07,-0.38 9.28,-8.81 4.37,-13.21 -6.69,-17.69 7.44,-8.5 16.79,-4.48 13.99,2.28 13.64,-4.93 -2.62,-6.53 6.42,-14.85 11.31,-9.26 4.2,-12.46 7.41,2.18 10.93,-3.09 6.32,-7.57 12.25,-3.18 -4.11,-14.32 15.45,-3.91 6.92,6.54 6.14,-7.52 6.61,7.58 10.77,3.86 9.89,-2.54 1.49,-6.64 9,-3.08 2.04,-15.54 7.48,-5.73 3.14,10.89 6.02,-13.99 -8.77,-7.64 -0.72,-13.26 4.11,-2.63 -3.38,-11.65 12.76,6.15 4.87,-21.92 7.68,-17.33 1.58,-11.86 5.63,-1.66 26.75,14.11 9.97,1.07 7.96,7.74 -5.58,13.77 10.57,2.52 11.95,-3.99 6.18,9.6 11.69,-6.74 6.35,9.6 10.57,-2.7 13.24,4.83 -1.08,10.85 5.78,3.77 18.68,-17.52 4.52,-16.51 11.59,-11.56 8.92,0.37 2.24,-5.37 14.56,3.73 13.6,-9.61 13.82,-0.55 6.04,8.16 13.18,5.53 -5.57,5.87 10.2,11.73 9.98,-10.29 1.97,-11.27 12.06,-0.1 -2.6,3.99 6.2,12.94 11.7,-3.21 1.26,-8.19 15.38,4.38 11.13,-8.88 23.07,-1.4 2.33,-17.44 -2.77,-5.94 7.87,-14.66 1.16,-10.68 14.11,-5.96 17.86,0.94 9.27,-10.36 11.65,-1.33 10.41,-9.69 7.64,1.07 16.2,-5.09 5.87,-7.95 20.73,7.47 4.61,-3.05 -0.21,-11.31 10.14,-12.07 -2.22,-3.02 9.13,-9.11 2.39,-17.56 -6.7,-5.7 11.39,-13.28 -10.03,-2.09 -1.8,-26.15 -13.14,-10.92 -10.12,2.88 -10.16,-12.85 -6.92,-0.49 -13.95,-21.48 -7.74,-1.32 -0.82,-12.98 -7.1,0.52 -5.28,-11.01 -7.1,-2.8 -4.97,-13.06 -10.14,-16.35 -0.67,-5.95 -17.97,-4.61 -0.54,-10.98 -8.77,0.83 -9.42,-11.46 -10.85,-5.29 -8.59,-3.51 -9.3,-14.96 -0.35,-7.79 50.41,-106.77 16.2,-33.42 14.78,-30.5 -10.99,-3.55 5.92,-18.59 -3.11,-2.24 7.78,-12.4 5.68,-17.85 -9.99,-9.22 13.99,-3.33 9.46,-29.97 -11.55,6.72 -15.41,-26.23 -2.62,-4.51 32.56,-39.16 -7.21,-3.2 -29.7,3.56 -2.55,-16.41 -13.76,6.89 0.51,12.34 -5.47,12.3 6.09,6.3 -12.43,12.77 1.91,16.15 -9.75,6.3 -4.16,9.46 -13.47,-10.12 3.35,-8.69 -8.6,-9.65 -7.4,-2.09 13.65,-21.74 -6.55,-3.59 5.62,-9.87 -6.22,-3.63 -43.95,10.04 -2.69,-5.74 3.68,-14.09 -10.21,-3.13 0.81,-29.31 4.21,-12.86 -10.74,-4.96 -17.89,-11.85 11.7,-29.39 9.2,-4.41 -1.79,-9.18 -8.53,-17.69 -8.24,-6 -9.42,5.47 -14.03,-8.17 -17.28,-5.47 -24.19,-11.17 14.34,-20.88 -18.43,-14.31 -29.83,-7.32 2.01,-24.68 -9.31,-11.38 13.22,-22.06 -14.5,-4.2 2.32,-10.68 18.57,5.95 4.9,-14.14 -10.19,-2.11 -35.53,-1.2 -3.04,19.72 -11.83,-1.34 -0.72,10.58 -11.26,-0.93 -0.98,11.46 -8.16,30.49 -5.68,10.31 -14.41,-6.98 -1.83,-49.11 -10.73,0.45 z"
         id="path7387"
         sodipodi:nodetypes="ccccccccccccccccccccccccccccccccccccccccccccccccccccccccccccccccccccccccccccccccccccccccccccccccccccccccccccccccccccccccccccccccccccccccccccccccccccccccccccccccccccccccccccccccccccccccccccccccccccccccccccccccccccccccccccccccccccccccccccccccccccccccccccccccccccccccccccccccccccccccccccccccccccccccccccccccccccccccccccccccccccccccccccccccccccccccccccccccccccccccccccccccccccccccccccccccccccccccccccccccccccccccccccccc" />
    </g>
    <g
       id="coastline"
       style="fill:none;stroke:#c0c0c0;stroke-width:5;stroke-linecap:round;stroke-linejoin:round;stroke-opacity:1;stroke-miterlimit:4;stroke-dasharray:none;fill-opacity:1" />
  </g>
</svg>
