<?xml version="1.0" encoding="UTF-8" standalone="no"?>
<svg
   version="1.1"
   viewbox="0 0 3178.5828 2245.0393"
   id="doc"
   sodipodi:docname="za_wc.svg"
   inkscape:version="1.1.2 (0a00cf5339, 2022-02-04)"
   xmlns:inkscape="http://www.inkscape.org/namespaces/inkscape"
   xmlns:sodipodi="http://sodipodi.sourceforge.net/DTD/sodipodi-0.dtd"
   xmlns="http://www.w3.org/2000/svg"
   xmlns:svg="http://www.w3.org/2000/svg"
   xmlns:rdf="http://www.w3.org/1999/02/22-rdf-syntax-ns#"
   xmlns:cc="http://creativecommons.org/ns#"
   xmlns:dc="http://purl.org/dc/elements/1.1/">
  <sodipodi:namedview
     id="namedview3724"
     pagecolor="#282828"
     bordercolor="#666666"
     borderopacity="1.0"
     inkscape:pageshadow="2"
     inkscape:pageopacity="0"
     inkscape:pagecheckerboard="0"
     showgrid="false"
     inkscape:zoom="0.15189044"
     inkscape:cx="319.3091"
     inkscape:cy="2057.404"
     inkscape:window-width="1920"
     inkscape:window-height="1019"
     inkscape:window-x="0"
     inkscape:window-y="31"
     inkscape:window-maximized="1"
     inkscape:current-layer="coastline" />
  <metadata
     id="metadata7429">
    <rdf:RDF>
      <cc:Work
         rdf:about="">
        <dc:format>image/svg+xml</dc:format>
        <dc:type
           rdf:resource="http://purl.org/dc/dcmitype/StillImage" />
      </cc:Work>
    </rdf:RDF>
  </metadata>
  <defs
     id="defs">
    <clipPath
       id="mapclip">
      <rect
         width="3178.5828"
         height="2245"
         x="0"
         y="0"
         id="cliprect" />
    </clipPath>
    <clipPath
       id="mapclip-5">
      <rect
         width="472"
         height="480"
         x="0"
         y="0"
         id="cliprect-9" />
    </clipPath>
    <clipPath
       id="mapclip-0">
      <rect
         width="648"
         height="659"
         x="0"
         y="0"
         id="cliprect-6" />
    </clipPath>
    <clipPath
       id="mapclip-6">
      <rect
         width="750"
         height="763"
         x="0"
         y="0"
         id="cliprect-3" />
    </clipPath>
  </defs>
  <g
     id="map"
     clip-path="url(#mapclip)">
    <g
       id="prov_border"
       style="fill:none;stroke:#aaaaaa;stroke-width:5;stroke-linecap:round;stroke-linejoin:round;stroke-opacity:1" />
    <g
       style="fill:none;stroke:#aaaaaa;stroke-width:5;stroke-linecap:round;stroke-linejoin:round;stroke-opacity:1"
       id="neighbour_border" />
    <g
       id="coastline"
       style="fill:none;stroke:#c0c0c0;stroke-width:5;stroke-linecap:round;stroke-linejoin:round;stroke-opacity:1;stroke-miterlimit:4;stroke-dasharray:none;fill-opacity:1">
      <path
         id="path7361"
         d="m 1410.34,2041.99 -11.28,6.38 -1.12,9.8 -29.77,-2.12 -27.25,0.95 -28.26,-9.38 -29.21,-4.71 -10.97,9.58 -18.24,0.86 -16.87,1.01 -10.44,4.62 -6.36,13.47 6.54,2.85 -9.53,4.98 -11.09,0.57 -11.5,6.77 2.39,8.42 -7.64,7.56 -9.89,6.33 -16.73,3 -22.57,-5.84 -11.94,2.23 -10.64,9.68 -11.39,2.68 -26.7,-9.28 -23.73,-1.05 -11.45,6.7 3.28,8.14 -7.02,3.52 -18.23,-3 -15.17,1.85 -14.67,6.33 -10.23,13.71 -19.21,12 -2.84,9.1 -15.67,4.21 -8.8,7.82 1.36,7.83 -8.01,5.38 -19.15,-10.67 -20.57,1.11 -10.39,3.42 -18.85,-18.27 -10.09,-2.34 -6.74,-7.85 -10.28,0.46 6.35,-10.76 -3.43,-9.69 -12.14,-12.31 -9.87,4.92 -12.22,-3.85 -10.43,-10.76 -18.89,3.56 -11.68,5.71 -2.63,-15.37 4.38,-4.69 -4.47,-12.67 6.67,-5.84 -8.2,-9.55 -10.68,-3.83 -15.21,0.45 -17.71,5 -9.56,7.85 -0.47,6.17 7.36,8.58 1.22,21.49 -11.03,-7.93 -6.41,-20.45 -6.6,-6.12 6.27,-14.11 -8.74,-3.95 9.01,-13.93 2.42,-9.84 9.52,1.37 2.75,-10.3 -6.12,-11.5 -2.48,-14.92 -14.51,-19.79 -4.57,-0.06 -1.28,-14.5 -7.93,-8.96 -14.23,-9.74 -0.76,-7.34 -7.8,-13.05 -22.56,-23.05 5.07,-4.8 4.75,11.97 9.97,7.5 -0.5,-8.01 -8.17,-5.46 -3.24,-15.75 -8.95,-1.86 -5.97,9.29 -5.5,-29.22 -4.97,-9.89 7.17,-3.87 -1.93,-8.03 11.13,-5.21 12.01,9.92 9.83,-1.64 14.53,-15.35 10.04,-20.85 2.13,-21.9 -4.08,-21.15 3.53,-8.79 -5.44,-15.44 -0.31,-15.04 -4.12,-12.78 -4.29,-11.95 0.83,-9.1 -6.42,-9.85 -2.28,-12.79 -11.41,-15.05 -5.36,-11.21 -16.77,-17.87 -20.14,-24.61 -2.82,-10.36 -16.34,-16.91 11.34,3.48 -4.18,-13.97 15.83,-14.68 -7.54,-14.36 16.32,-1.84 0.65,-21.62 11.96,-1.26 12.18,9.58 6.07,-6.8 7.41,0.92 14.02,-27.64 -0.61,-11.4 5.59,-11.27 -5.46,-11.17 9.72,8.22 12.23,15.45 -6.38,-13.97 1.99,-13.23 9.76,-2.92 13.5,20.69 15.15,1.09 6.08,16.58 10.36,7.84 13.08,3.96 2.34,20.48 -12.15,4.16 16.3,9.12 -10.25,6.12 -0.66,10.66 6.99,11.69 0.6,21.02 10.48,11.04 -4.33,8.6 9.65,11.32 -2.74,12.7 9.7,4.2 -0.52,23.69 2.86,21.44 -7.69,7 -0.24,7.29 13.44,4.49 11.68,-0.96 1.94,7.22 10.65,-14.88 -2.74,17.49 8.54,2.82 6.14,9.52 4.5,-4.89 13.41,9.7 -1.02,11.9 4.01,5.49 -0.86,12.29 -11.49,6.91 3.61,12.61 10.29,17.97 -0.66,15.34 6.73,17.9 10.6,-7.87 1.21,-26.89 15.27,-5.45 11.91,-14.31 17.22,2.06 21.91,-22.37 7.42,-11.07 2.36,6.83 10.64,-0.98 2.48,14.54 -5.51,-1.08 -7.18,8.37 -4.03,12.01 -7.63,-3.68 6.18,28.93 4.28,12.24 7.48,6.8 -0.13,11.3 4.69,5.23 11.64,2.96 12.04,15.89 8.56,6.12 8.64,-0.06 8.43,-10.55 4.48,10.3 20.07,-0.38 9.28,-8.81 4.37,-13.21 -6.69,-17.69 7.44,-8.5 16.79,-4.48 13.99,2.28 13.64,-4.93 -2.62,-6.53 6.42,-14.85 11.31,-9.26 4.2,-12.46 7.41,2.18 10.93,-3.09 6.32,-7.57 12.25,-3.18 -4.11,-14.32 15.45,-3.91 6.92,6.54 6.14,-7.52 6.61,7.58 10.77,3.86 9.89,-2.54 1.49,-6.64 9,-3.08 2.04,-15.54 7.48,-5.73 3.14,10.89 6.02,-13.99 -8.77,-7.64 -0.72,-13.26 4.11,-2.63 -3.38,-11.65 12.76,6.15 4.87,-21.92 7.68,-17.33 1.58,-11.86 5.63,-1.66 26.75,14.11 9.97,1.07 7.96,7.74 -5.58,13.77 10.57,2.52 11.95,-3.99 6.18,9.6 11.69,-6.74 6.35,9.6 10.57,-2.7 13.24,4.83 -1.08,10.85 5.78,3.77 18.68,-17.52 4.52,-16.51 11.59,-11.56 8.92,0.37 2.24,-5.37 14.56,3.73 13.6,-9.61 13.82,-0.55 6.04,8.16 13.18,5.53 -5.57,5.87 10.2,11.73 9.98,-10.29 1.97,-11.27 12.06,-0.1 -2.6,3.99 6.2,12.94 11.7,-3.21 4.52,4.14 -8.57,5.79 -2.57,10.09 6,-1.71 10.87,9.84 -6.81,10.9 -10,8.13 4.53,9.33 -5.02,6.94 -8.91,-0.92 -1.03,5.98 -9.92,2.28 -9.78,8.26 -18.19,-12.69 -13.61,10.1 -2.98,10.22 2.42,7.78 -30.97,-3.17 -5.45,11.2 -11.07,-6.28 -3.58,7.61 -12.18,5.1 3.49,14.83 6.33,6.32 2.11,16.95 -4.48,3.39 9.1,5.29 2.81,10.12 6.58,-0.14 -2.59,10.42 -32.79,-9.37 -8.46,5.61 4.01,9.86 -15.47,2.75 -8.13,13.17 3.04,7.26 -4.92,4.85 3.16,8.64 -8.75,11.7 -16.29,31.43 -4.84,-0.29 -0.28,11.94 5.56,4.11 22.72,1.18 28.2,-7.46 22.98,-0.17 8.3,8.74 19.92,0.12 15.44,8.75 1.97,12.42 8.31,9.29 -0.55,7.87 -11.94,0.17 -20.51,7.78 -6.17,12.76 13.29,2.34 9.61,-2.5 0.72,5.98 19.99,5.69 -7.77,4.9 0.18,14.72 z"
         style="fill:#ffffff;fill-opacity:0.25;stroke:none;stroke-width:5;stroke-linecap:round;stroke-linejoin:round;stroke-miterlimit:4;stroke-dasharray:none;stroke-opacity:1"
         sodipodi:nodetypes="ccccccccccccccccccccccccccccccccccccccccccccccccccccccccccccccccccccccccccccccccccccccccccccccccccccccccccccccccccccccccccccccccccccccccccccccccccccccccccccccccccccccccccccccccccccccccccccccccccccccccccccccccccccccccccccccccccccccccccccccccccccccccccccccccccccccccccccccccccccccccccccccccccccccccccccccccccccccccccccccccccccccccccc" />
    </g>
  </g>
</svg>
